<?xml version="1.0" encoding="UTF-8"?>
<svg width="96px" height="19px" viewBox="0 0 96 19" version="1.1" xmlns="http://www.w3.org/2000/svg" xmlns:xlink="http://www.w3.org/1999/xlink">
    <!-- Generator: Sketch 42 (36781) - http://www.bohemiancoding.com/sketch -->
    <title>logo</title>
    <desc>Created with Sketch.</desc>
    <defs></defs>
    <g id="Logo" stroke="none" stroke-width="1" fill="none" fill-rule="evenodd">
        <g id="logo" stroke="#515C67" fill="#515C67">
            <path d="M6.39274242,3.05589394 L6.39274242,17.4034091 C6.39274242,17.9939318 6.85203788,18.3001288 7.44256061,18.3001288 C8.03308333,18.3001288 8.49237879,17.9939318 8.49237879,17.4034091 L8.49237879,3.05589394 L13.4571439,3.05589394 C13.9601818,3.05589394 14.28825,2.6184697 14.28825,2.11543182 C14.28825,1.59052273 13.982053,1.13122727 13.4571439,1.13122727 L1.40610606,1.13122727 C0.88119697,1.13122727 0.575,1.59052273 0.575,2.11543182 C0.575,2.6184697 0.88119697,3.05589394 1.42797727,3.05589394 L6.39274242,3.05589394 Z M28.4898433,8.26124242 L19.1727069,8.26124242 L19.1727069,1.8967197 C19.1727069,1.28432576 18.7134115,1 18.1228887,1 C17.5104948,1 17.0730705,1.28432576 17.0730705,1.8967197 L17.0730705,17.4034091 C17.0730705,17.9939318 17.5104948,18.3001288 18.1228887,18.3001288 C18.7134115,18.3001288 19.1727069,17.9939318 19.1727069,17.4034091 L19.1727069,10.1640379 L28.4898433,10.1640379 L28.4898433,17.4034091 C28.4898433,17.9939318 28.9491387,18.3001288 29.5834039,18.3001288 C30.1520554,18.3001288 30.5894796,17.9939318 30.5894796,17.4034091 L30.5894796,1.8967197 C30.5894796,1.28432576 30.1520554,1 29.5834039,1 C28.9491387,1 28.4898433,1.28432576 28.4898433,1.8967197 L28.4898433,8.26124242 Z M36.8080805,10.1859091 L44.2661638,10.1859091 C44.7910729,10.1859091 45.1191411,9.77035606 45.1191411,9.26731818 C45.1191411,8.72053788 44.8129441,8.32685606 44.2661638,8.32685606 L36.8080805,8.32685606 L36.8080805,3.79951515 C36.8080805,3.27460606 37.0267926,3.03402273 37.5517017,3.03402273 L45.2503684,3.03402273 C45.8190199,3.03402273 46.1252168,2.6184697 46.1252168,2.07168939 C46.1252168,1.52490909 45.8190199,1.13122727 45.2503684,1.13122727 L36.9830502,1.13122727 C35.4301941,1.13122727 34.7521865,1.80923485 34.7521865,3.49331818 L34.7521865,15.8286818 C34.7521865,17.4908939 35.4301941,18.1689015 36.9830502,18.1689015 L45.4472093,18.1689015 C46.0158608,18.1689015 46.3220578,17.7314773 46.3220578,17.2065682 C46.3220578,16.6597879 46.0158608,16.2661061 45.4472093,16.2661061 L37.6173153,16.2661061 C37.1361487,16.2661061 36.8080805,16.0692652 36.8080805,15.5662273 L36.8080805,10.1859091 Z M51.862651,13.1822652 L50.1785677,17.6877348 C50.0254692,18.1251591 49.697401,18.3001288 49.3255904,18.3001288 C49.1724919,18.3001288 49.0412647,18.2782576 48.8881662,18.2345152 C48.4507419,18.1251591 48.1226737,17.7533485 48.1226737,17.3377955 C48.1226737,17.2065682 48.144545,17.0972121 48.1882874,16.9659848 L54.1372571,2.02794697 C54.4215828,1.28432576 54.9683631,1 55.6463707,1 C56.3462495,1 56.914901,1.28432576 57.1992268,2.02794697 L63.1481965,17.0097273 C63.2138101,17.1409545 63.2356813,17.2503106 63.2356813,17.3815379 C63.2356813,17.8189621 62.8857419,18.1470303 62.4483177,18.2563864 C62.3170904,18.3001288 62.1858631,18.322 62.0546359,18.322 C61.6609541,18.322 61.3110147,18.1251591 61.1579162,17.7096061 L59.4300904,13.1822652 L51.862651,13.1822652 Z M52.5187874,11.3450833 L58.7739541,11.3450833 L56.3462495,4.98056061 C56.1056662,4.34629545 55.8650828,3.64641667 55.6682419,2.90279545 C55.471401,3.64641667 55.2526889,4.34629545 54.9902344,5.00243182 L52.5187874,11.3450833 Z M68.3169791,11.1919848 L68.3169791,17.3815379 C68.3169791,17.9939318 67.8795549,18.3001288 67.2890322,18.3001288 C66.6766382,18.3001288 66.2610852,17.9939318 66.2610852,17.3596667 L66.2610852,3.49331818 C66.2610852,1.80923485 66.9390928,1.13122727 68.4919488,1.13122727 L73.3473579,1.13122727 C76.8030094,1.13122727 78.7495473,2.90279545 78.7495473,6.00850758 C78.7495473,9.28918939 76.7373958,11.1919848 73.2598731,11.1919848 L68.3169791,11.1919848 Z M68.3169791,9.35480303 L73.2161307,9.35480303 C75.4251231,9.35480303 76.6061685,8.17375758 76.6061685,6.05225 C76.6061685,4.08384091 75.4032519,2.9902803 73.2161307,2.9902803 L69.0168579,2.9902803 C68.5356913,2.9902803 68.3169791,3.27460606 68.3169791,3.75577273 L68.3169791,9.35480303 Z M83.9620724,11.1919848 L83.9620724,17.3815379 C83.9620724,17.9939318 83.5246482,18.3001288 82.9341254,18.3001288 C82.3217315,18.3001288 81.9061785,17.9939318 81.9061785,17.3596667 L81.9061785,3.49331818 C81.9061785,1.80923485 82.584186,1.13122727 84.1370421,1.13122727 L88.9924512,1.13122727 C92.4481027,1.13122727 94.3946406,2.90279545 94.3946406,6.00850758 C94.3946406,9.28918939 92.3824891,11.1919848 88.9049663,11.1919848 L83.9620724,11.1919848 Z M83.9620724,9.35480303 L88.8612239,9.35480303 C91.0702163,9.35480303 92.2512618,8.17375758 92.2512618,6.05225 C92.2512618,4.08384091 91.0483451,2.9902803 88.8612239,2.9902803 L84.6619512,2.9902803 C84.1807845,2.9902803 83.9620724,3.27460606 83.9620724,3.75577273 L83.9620724,9.35480303 Z" id="THEAPP"></path>
        </g>
    </g>
</svg>